<svg width="115" height="17" viewBox="0 0 115 17" fill="none" xmlns="http://www.w3.org/2000/svg">
<path d="M0.677912 16V0.727272H6.27095C7.35476 0.727272 8.25213 0.90625 8.96307 1.2642C9.67401 1.61719 10.206 2.09695 10.5589 2.70348C10.9119 3.30504 11.0884 3.98366 11.0884 4.73935C11.0884 5.37571 10.9716 5.91264 10.7379 6.35014C10.5043 6.78267 10.1911 7.13068 9.7983 7.39418C9.41051 7.6527 8.98295 7.84162 8.51562 7.96094V8.11008C9.02273 8.13494 9.5174 8.29901 9.99965 8.60227C10.4869 8.90057 10.8896 9.32564 11.2077 9.87749C11.5259 10.4293 11.685 11.1005 11.685 11.891C11.685 12.6715 11.5011 13.3725 11.1332 13.994C10.7702 14.6104 10.2085 15.1001 9.4478 15.4631C8.68715 15.821 7.7152 16 6.53196 16H0.677912ZM2.98224 14.0238H6.30824C7.41193 14.0238 8.20241 13.81 8.67969 13.3825C9.15696 12.9549 9.3956 12.4205 9.3956 11.7791C9.3956 11.2969 9.27379 10.8544 9.03018 10.4517C8.78658 10.049 8.43857 9.72834 7.98615 9.4897C7.53871 9.25107 7.00675 9.13175 6.39027 9.13175H2.98224V14.0238ZM2.98224 7.33452H6.0696C6.58665 7.33452 7.05149 7.23508 7.46413 7.03622C7.88175 6.83736 8.21236 6.55895 8.45597 6.20099C8.70455 5.83807 8.82884 5.41051 8.82884 4.91832C8.82884 4.28693 8.6076 3.75746 8.16513 3.3299C7.72266 2.90234 7.04403 2.68856 6.12926 2.68856H2.98224V7.33452ZM17.5726 16.2536C16.8468 16.2536 16.1905 16.1193 15.6039 15.8509C15.0172 15.5774 14.5524 15.1822 14.2093 14.6651C13.8713 14.1481 13.7022 13.5142 13.7022 12.7635C13.7022 12.1172 13.8265 11.5852 14.0751 11.1676C14.3237 10.75 14.6593 10.4194 15.0819 10.1758C15.5044 9.93217 15.9767 9.74822 16.4988 9.62393C17.0208 9.49964 17.5527 9.40518 18.0946 9.34055C18.7807 9.26101 19.3375 9.19638 19.7651 9.14666C20.1926 9.09197 20.5034 9.00497 20.6973 8.88565C20.8912 8.76633 20.9881 8.57244 20.9881 8.30398V8.25178C20.9881 7.6005 20.8042 7.09588 20.4363 6.73793C20.0733 6.37997 19.5314 6.20099 18.8105 6.20099C18.0598 6.20099 17.4682 6.36754 17.0357 6.70064C16.6081 7.02876 16.3123 7.39418 16.1483 7.79688L14.0527 7.3196C14.3013 6.62358 14.6642 6.06179 15.1415 5.63423C15.6238 5.2017 16.1781 4.88849 16.8045 4.6946C17.4309 4.49574 18.0897 4.39631 18.7807 4.39631C19.2381 4.39631 19.7228 4.45099 20.2349 4.56037C20.752 4.66477 21.2342 4.85866 21.6816 5.14204C22.1341 5.42543 22.5044 5.83061 22.7928 6.3576C23.0811 6.87962 23.2253 7.55824 23.2253 8.39347V16H21.0478V14.4339H20.9583C20.8141 14.7223 20.5978 15.0057 20.3095 15.2841C20.0211 15.5625 19.6507 15.7937 19.1983 15.9776C18.7459 16.1616 18.204 16.2536 17.5726 16.2536ZM18.0574 14.4638C18.6738 14.4638 19.2008 14.342 19.6383 14.0984C20.0808 13.8548 20.4164 13.5366 20.6451 13.1438C20.8787 12.7461 20.9956 12.321 20.9956 11.8686V10.392C20.916 10.4716 20.7619 10.5462 20.5332 10.6158C20.3095 10.6804 20.0534 10.7376 19.7651 10.7873C19.4767 10.832 19.1958 10.8743 18.9224 10.9141C18.649 10.9489 18.4203 10.9787 18.2363 11.0036C17.8038 11.0582 17.4086 11.1502 17.0506 11.2795C16.6976 11.4087 16.4142 11.5952 16.2005 11.8388C15.9917 12.0774 15.8873 12.3956 15.8873 12.7933C15.8873 13.3452 16.0911 13.7628 16.4988 14.0462C16.9064 14.3246 17.426 14.4638 18.0574 14.4638ZM28.246 12.1147L28.2311 9.39276H28.6189L33.1828 4.54545H35.8525L30.6473 10.0639H30.2968L28.246 12.1147ZM26.1952 16V0.727272H28.425V16H26.1952ZM33.4289 16L29.3273 10.5561L30.8635 8.99751L36.1658 16H33.4289ZM42.3498 16.2312C41.2212 16.2312 40.2493 15.9901 39.4339 15.5078C38.6236 15.0206 37.9972 14.337 37.5547 13.457C37.1172 12.5721 36.8984 11.5355 36.8984 10.3473C36.8984 9.17401 37.1172 8.13991 37.5547 7.24503C37.9972 6.35014 38.6136 5.65163 39.4041 5.1495C40.1996 4.64737 41.1293 4.39631 42.1932 4.39631C42.8395 4.39631 43.4659 4.5032 44.0724 4.71697C44.679 4.93075 45.2234 5.26633 45.7056 5.72372C46.1879 6.18111 46.5682 6.77521 46.8466 7.50604C47.125 8.23189 47.2642 9.11435 47.2642 10.1534V10.9439H38.1587V9.27344H45.0792C45.0792 8.68679 44.9599 8.16726 44.7212 7.71484C44.4826 7.25746 44.147 6.89702 43.7145 6.63352C43.2869 6.37003 42.7848 6.23828 42.2081 6.23828C41.5817 6.23828 41.0348 6.3924 40.5675 6.70064C40.1051 7.00391 39.7472 7.40163 39.4936 7.89382C39.245 8.38104 39.1207 8.91051 39.1207 9.48224V10.7873C39.1207 11.5529 39.255 12.2042 39.5234 12.7411C39.7969 13.2781 40.1772 13.6882 40.6644 13.9716C41.1516 14.25 41.7209 14.3892 42.3722 14.3892C42.7947 14.3892 43.18 14.3295 43.5281 14.2102C43.8761 14.0859 44.1768 13.902 44.4304 13.6584C44.6839 13.4148 44.8778 13.114 45.0121 12.756L47.1225 13.1364C46.9535 13.7578 46.6502 14.3022 46.2127 14.7695C45.7802 15.2319 45.2358 15.5923 44.5795 15.8509C43.9283 16.1044 43.185 16.2312 42.3498 16.2312ZM57.5256 9.19886V16H55.2958V0.727272H57.4957V6.4098H57.6374C57.9059 5.79332 58.3161 5.30362 58.8679 4.9407C59.4197 4.57777 60.1406 4.39631 61.0305 4.39631C61.8161 4.39631 62.5021 4.55788 63.0888 4.88104C63.6804 5.20419 64.1378 5.68643 64.4609 6.32777C64.7891 6.96413 64.9531 7.75959 64.9531 8.71413V16H62.7234V8.9826C62.7234 8.1424 62.5071 7.49112 62.0746 7.02876C61.642 6.56143 61.0405 6.32777 60.2699 6.32777C59.7429 6.32777 59.2706 6.43963 58.853 6.66335C58.4403 6.88707 58.1147 7.2152 57.8761 7.64773C57.6424 8.07528 57.5256 8.59233 57.5256 9.19886ZM72.7536 16.2312C71.6797 16.2312 70.7425 15.9851 69.9421 15.4929C69.1417 15.0007 68.5202 14.3121 68.0778 13.4272C67.6353 12.5423 67.4141 11.5082 67.4141 10.3249C67.4141 9.13672 67.6353 8.09766 68.0778 7.20774C68.5202 6.31783 69.1417 5.62678 69.9421 5.13459C70.7425 4.6424 71.6797 4.39631 72.7536 4.39631C73.8274 4.39631 74.7646 4.6424 75.565 5.13459C76.3654 5.62678 76.9869 6.31783 77.4293 7.20774C77.8718 8.09766 78.093 9.13672 78.093 10.3249C78.093 11.5082 77.8718 12.5423 77.4293 13.4272C76.9869 14.3121 76.3654 15.0007 75.565 15.4929C74.7646 15.9851 73.8274 16.2312 72.7536 16.2312ZM72.761 14.3594C73.457 14.3594 74.0337 14.1754 74.4911 13.8075C74.9485 13.4396 75.2866 12.9499 75.5053 12.3384C75.729 11.7269 75.8409 11.0533 75.8409 10.3175C75.8409 9.58665 75.729 8.91548 75.5053 8.30398C75.2866 7.6875 74.9485 7.19283 74.4911 6.81996C74.0337 6.44709 73.457 6.26065 72.761 6.26065C72.06 6.26065 71.4783 6.44709 71.016 6.81996C70.5586 7.19283 70.218 7.6875 69.9943 8.30398C69.7756 8.91548 69.6662 9.58665 69.6662 10.3175C69.6662 11.0533 69.7756 11.7269 69.9943 12.3384C70.218 12.9499 70.5586 13.4396 71.016 13.8075C71.4783 14.1754 72.06 14.3594 72.761 14.3594ZM87.838 11.2496V4.54545H90.0752V16H87.8827V14.0163H87.7634C87.4999 14.6278 87.0773 15.1374 86.4957 15.5451C85.9189 15.9478 85.2006 16.1491 84.3405 16.1491C83.6047 16.1491 82.9534 15.9876 82.3866 15.6644C81.8248 15.3363 81.3824 14.8516 81.0592 14.2102C80.741 13.5689 80.5819 12.7759 80.5819 11.8313V4.54545H82.8117V11.5629C82.8117 12.3434 83.028 12.9648 83.4605 13.4272C83.893 13.8896 84.4548 14.1207 85.1459 14.1207C85.5635 14.1207 85.9786 14.0163 86.3912 13.8075C86.8089 13.5987 87.1544 13.283 87.4278 12.8604C87.7062 12.4379 87.843 11.9009 87.838 11.2496ZM101.655 7.34197L99.6337 7.69993C99.5492 7.44141 99.415 7.19531 99.231 6.96165C99.052 6.72798 98.8084 6.53658 98.5002 6.38743C98.1919 6.23828 97.8066 6.16371 97.3443 6.16371C96.7129 6.16371 96.1859 6.3054 95.7633 6.58878C95.3407 6.86719 95.1294 7.22763 95.1294 7.6701C95.1294 8.05291 95.2711 8.36115 95.5545 8.59482C95.8379 8.82848 96.2953 9.01989 96.9267 9.16903L98.7463 9.58665C99.8002 9.83026 100.586 10.2056 101.103 10.7127C101.62 11.2198 101.878 11.8786 101.878 12.6889C101.878 13.375 101.68 13.9865 101.282 14.5234C100.889 15.0554 100.34 15.473 99.6337 15.7763C98.9327 16.0795 98.1199 16.2312 97.1951 16.2312C95.9125 16.2312 94.8659 15.9577 94.0556 15.4109C93.2452 14.859 92.748 14.076 92.5641 13.0618L94.7193 12.7337C94.8535 13.2955 95.1294 13.7205 95.5471 14.0089C95.9647 14.2923 96.5091 14.4339 97.1802 14.4339C97.911 14.4339 98.4952 14.2823 98.9327 13.979C99.3702 13.6708 99.589 13.2955 99.589 12.853C99.589 12.495 99.4547 12.1942 99.1863 11.9506C98.9228 11.707 98.5176 11.5231 97.9707 11.3988L96.0318 10.9737C94.9629 10.7301 94.1724 10.3423 93.6603 9.81037C93.1532 9.27841 92.8997 8.60476 92.8997 7.78942C92.8997 7.11328 93.0886 6.52166 93.4664 6.01456C93.8443 5.50746 94.3663 5.11222 95.0325 4.82883C95.6987 4.54048 96.4618 4.39631 97.3219 4.39631C98.5598 4.39631 99.5343 4.66477 100.245 5.2017C100.956 5.73366 101.426 6.44709 101.655 7.34197ZM109.267 16.2312C108.138 16.2312 107.166 15.9901 106.351 15.5078C105.541 15.0206 104.914 14.337 104.472 13.457C104.034 12.5721 103.815 11.5355 103.815 10.3473C103.815 9.17401 104.034 8.13991 104.472 7.24503C104.914 6.35014 105.531 5.65163 106.321 5.1495C107.117 4.64737 108.046 4.39631 109.11 4.39631C109.756 4.39631 110.383 4.5032 110.989 4.71697C111.596 4.93075 112.14 5.26633 112.623 5.72372C113.105 6.18111 113.485 6.77521 113.764 7.50604C114.042 8.23189 114.181 9.11435 114.181 10.1534V10.9439H105.076V9.27344H111.996C111.996 8.68679 111.877 8.16726 111.638 7.71484C111.4 7.25746 111.064 6.89702 110.631 6.63352C110.204 6.37003 109.702 6.23828 109.125 6.23828C108.499 6.23828 107.952 6.3924 107.484 6.70064C107.022 7.00391 106.664 7.40163 106.411 7.89382C106.162 8.38104 106.038 8.91051 106.038 9.48224V10.7873C106.038 11.5529 106.172 12.2042 106.44 12.7411C106.714 13.2781 107.094 13.6882 107.581 13.9716C108.069 14.25 108.638 14.3892 109.289 14.3892C109.712 14.3892 110.097 14.3295 110.445 14.2102C110.793 14.0859 111.094 13.902 111.347 13.6584C111.601 13.4148 111.795 13.114 111.929 12.756L114.04 13.1364C113.87 13.7578 113.567 14.3022 113.13 14.7695C112.697 15.2319 112.153 15.5923 111.497 15.8509C110.845 16.1044 110.102 16.2312 109.267 16.2312Z" fill="black"/>
</svg>
