<svg width="50" height="50" viewBox="0 0 50 50" fill="none" xmlns="http://www.w3.org/2000/svg">
<path d="M43.75 20.833C43.75 35.4163 25 47.9163 25 47.9163C25 47.9163 6.25 35.4163 6.25 20.833C6.25 15.8602 8.22544 11.0911 11.7417 7.57476C15.2581 4.05845 20.0272 2.08301 25 2.08301C29.9728 2.08301 34.7419 4.05845 38.2582 7.57476C41.7746 11.0911 43.75 15.8602 43.75 20.833Z" stroke="black" stroke-width="4" stroke-linecap="round" stroke-linejoin="round"/>
<path d="M25 27.083C28.4518 27.083 31.25 24.2848 31.25 20.833C31.25 17.3812 28.4518 14.583 25 14.583C21.5482 14.583 18.75 17.3812 18.75 20.833C18.75 24.2848 21.5482 27.083 25 27.083Z" stroke="black" stroke-width="4" stroke-linecap="round" stroke-linejoin="round"/>
</svg>
