<svg width="46" height="46" viewBox="0 0 46 46" fill="none" xmlns="http://www.w3.org/2000/svg">
<path d="M43.8334 33.2496V39.4996C43.8357 40.0798 43.7169 40.6541 43.4844 41.1857C43.252 41.7173 42.9111 42.1945 42.4835 42.5868C42.056 42.979 41.5512 43.2776 41.0016 43.4635C40.4519 43.6494 39.8695 43.7184 39.2917 43.6662C32.8809 42.9696 26.7229 40.779 21.3125 37.2704C16.2788 34.0718 12.0111 29.8041 8.81252 24.7704C5.29164 19.3354 3.10053 13.1475 2.41669 6.70788C2.36463 6.13177 2.4331 5.55113 2.61773 5.00294C2.80237 4.45474 3.09913 3.95099 3.48912 3.52376C3.87911 3.09654 4.35378 2.7552 4.88292 2.52147C5.41206 2.28775 5.98407 2.16676 6.56252 2.16622H12.8125C13.8236 2.15627 14.8038 2.5143 15.5704 3.17358C16.337 3.83286 16.8377 4.7484 16.9792 5.74955C17.243 7.74969 17.7322 9.71357 18.4375 11.6037C18.7178 12.3494 18.7785 13.1598 18.6123 13.9389C18.4462 14.718 18.0602 15.4331 17.5 15.9996L14.8542 18.6454C17.8199 23.8611 22.1385 28.1796 27.3542 31.1454L30 28.4996C30.5665 27.9394 31.2816 27.5534 32.0607 27.3872C32.8398 27.2211 33.6502 27.2818 34.3959 27.562C36.286 28.2674 38.2499 28.7566 40.25 29.0204C41.262 29.1632 42.1863 29.6729 42.847 30.4527C43.5077 31.2324 43.8587 32.2278 43.8334 33.2496Z" stroke="black" stroke-width="4" stroke-linecap="round" stroke-linejoin="round"/>
</svg>
